<svg xmlns="http://www.w3.org/2000/svg" viewBox="0 0 2034.73 896.77"><defs><style>.cls-1{fill:#fff;}</style></defs><g id="Camada_2" data-name="Camada 2"><g id="Camada_1-2" data-name="Camada 1"><path class="cls-1" d="M1275.59,434.36c-1.5-25.54-10.59-48.4-26.3-66.11-16.32-18.4-39.1-30.4-65.89-34.71-24.66-4-52.1,1.82-81.55,17.2-23.54,12.28-47.7,30.49-69.88,52.65-1.53,1.53-3,3.09-4.55,4.65V337.1H922.85V580.69l-.22.11c-3.47,1.89-7,3.59-10.59,5.34a366.93,366.93,0,0,1-44.35,17.78c-14.09,4.63-28.47,8.54-43,11.79q2.24-5.43,4.31-10.92c3.29-8.64,6.22-17.42,8.9-26.27S843,560.74,845,551.74a427.74,427.74,0,0,0,9-54.53c7.23-73.29-3.92-147.59-30.93-215.6A458.75,458.75,0,0,0,770.92,185,425.12,425.12,0,0,0,602.64,44.27,465.37,465.37,0,0,0,498,9.61,473,473,0,0,0,388.22.23a456.09,456.09,0,0,0-109.53,16.9A428.26,428.26,0,0,0,226,35.81,412.11,412.11,0,0,0,175.9,61.49Q163.75,68.86,152,77.23c-7.79,5.62-15.41,11.58-22.8,18a277.33,277.33,0,0,0-40.76,43.39A235.91,235.91,0,0,0,58.23,192a248.61,248.61,0,0,0-15.58,58.9,282.43,282.43,0,0,0-1.82,59.69,304.63,304.63,0,0,0,10,58.06q3.89,14.18,9.06,28c1.71,4.59,3.56,9.13,5.48,13.64,1,2.23,2,4.51,3,6.71l3.08,6.56a373.82,373.82,0,0,0,29,49.61,437.18,437.18,0,0,0,35,44.25,512.44,512.44,0,0,0,39.41,39c13.69,12.22,27.85,23.69,42.35,34.51,3.64,2.71,7.19,5.35,11.1,8.08l5.75,4.06,5.82,3.9c7.76,5.22,15.69,10.07,23.66,14.82,4,2.3,8,4.61,12.07,6.85l6.08,3.29c2,1.11,4.06,2.19,6.11,3.23,4.1,2.08,8.19,4.2,12.34,6.15l6.19,3,6.24,2.86q25,11.39,50.59,20.47c68.28,24.31,139,37.46,210,42.76l2.87.19q-11.84,9-24.42,16.94c-5.52,3.51-11.16,6.81-16.88,10s-11.52,6.21-17.41,9-11.87,5.46-17.92,7.93-12.15,4.81-18.33,6.9a310.1,310.1,0,0,1-77.28,15.78,339.53,339.53,0,0,1-40.92.66,369.7,369.7,0,0,1-41.72-4.16,406.65,406.65,0,0,1-41.88-9,418.2,418.2,0,0,1-41.46-13.62q-10.28-4-20.4-8.5T197.22,733q-10-5.09-19.7-10.73c-6.5-3.75-13-7.64-19.3-11.75s-12.59-8.41-18.78-12.85-12.3-9-18.26-13.85q-18-14.37-34.77-30.71L58,625.53,0,667.78l23.33,31.3a481.76,481.76,0,0,0,35.54,42.33q9.45,10.07,19.47,19.51T98.8,779.34a501.64,501.64,0,0,0,90.8,61.47,490.27,490.27,0,0,0,102.06,40.08,459.1,459.1,0,0,0,109,15.77,424.2,424.2,0,0,0,110-11.93,440,440,0,0,0,52.75-16.4,457.77,457.77,0,0,0,50.14-22.73A474.6,474.6,0,0,0,742.86,745,460.47,460.47,0,0,0,777.19,702l.32-.45c2.81-.46,5.63-.91,8.44-1.4,17.6-3.14,35.14-6.85,52.55-11.29l6.52-1.7c2.17-.58,4.33-1.21,6.5-1.81l6.5-1.82,6.47-1.94c8.64-2.55,17.22-5.39,25.74-8.41,4.27-1.47,8.5-3.11,12.75-4.66s8.46-3.27,12.66-5l7.21-3.05V806.8h104.57V709.45c27.62,35.14,64.82,61.86,110.11,78.68,47.15,17.52,87.43,18.51,95.89,18.51h40.72V718.7h-40.65c-2.14,0-33-.47-67.89-14-29-11.23-52.21-28-69.47-50.19C1219.62,602.79,1280,509,1275.59,434.36ZM532.82,611.68q-23.39-5.16-46.21-11.73a651.65,651.65,0,0,1-87.9-32.07c-14-6.28-27.58-13.13-40.7-20.35l-4.91-2.73L348.27,542c-3.24-1.83-6.36-3.8-9.52-5.72-1.59-.94-3.15-1.92-4.69-2.91l-4.64-3c-3.06-2-6.08-4-9.09-6.06C314.4,520.2,308.55,516,303,511.68l-4.21-3.25-4.09-3.33C292,503,289,500.43,286.17,498c-5.7-4.94-11.36-9.86-16.79-14.92s-10.72-10.18-15.86-15.34c-20.58-20.61-38.34-42.47-51.93-65.06-3.4-5.64-6.56-11.33-9.43-17s-5.45-11.49-7.74-17.27L182.75,364c-.55-1.44-1-2.81-1.5-4.21-1-2.8-1.87-5.6-2.69-8.44-1.66-5.67-3.06-11.4-4.18-17.14-4.44-23-4-46.13.57-65.72A108.4,108.4,0,0,1,184.79,242a95.26,95.26,0,0,1,6.86-10.93,108.5,108.5,0,0,1,8.48-10.3,149.46,149.46,0,0,1,22.34-19.52c4.32-3.11,8.92-6.12,13.75-9s9.92-5.69,15.2-8.38A275,275,0,0,1,285,169.61a288.22,288.22,0,0,1,35.48-10A324.55,324.55,0,0,1,357.15,154a345.63,345.63,0,0,1,37.27-1.36,321.53,321.53,0,0,1,37.22,2.83,338.59,338.59,0,0,1,36.53,6.77,331.4,331.4,0,0,1,68.53,24.82,292.27,292.27,0,0,1,58.63,38.29,276.15,276.15,0,0,1,24.95,23.87c4,4.25,7.77,8.69,11.48,13.25s7.35,9.2,10.83,14a317.05,317.05,0,0,1,19.32,30.25c2.93,5.27,5.79,10.61,8.47,16.06s5.18,11,7.55,16.62a315.45,315.45,0,0,1,12.45,34.53c1.76,5.88,3.27,11.83,4.7,17.79s2.72,12,3.78,18a319.78,319.78,0,0,1,4.34,36.37q.59,9.12.64,18.21t-.51,18.1A294.41,294.41,0,0,1,699.17,518c-1.06,5.85-2.34,11.64-3.77,17.37s-3,11.44-4.81,17.13a290.75,290.75,0,0,1-13.19,33.75q-3.85,8.33-8.26,16.52T659.73,619q-2.81,4.54-5.78,9-13-.66-25.93-1.8-12.06-1.06-24-2.47t-23.9-3.31Q556.25,616.72,532.82,611.68Zm501.39-27.91c-1.23-14.85,3.1-33,12.63-52.95,10.65-22.23,27.45-45.4,47.29-65.23,34.86-34.83,63.72-45.34,73.71-45.34a9.53,9.53,0,0,1,1.61.12c12.68,2,17.65,7.22,18.35,19.15C1190.06,478,1142.61,548.55,1034.21,583.77Z"/><path class="cls-1" d="M1725.54,361.85q-53.49-29.55-121.33-29.57-45.24,0-83.06,15.65a182.56,182.56,0,0,0-65.67,46.1V156.59H1346.76V801.94h103.5v-60a168,168,0,0,0,66.54,49.58q39.57,16.5,87.41,16.52,67.85,0,121.33-29.57t83.93-83.93q30.43-54.35,30.44-124.81t-30.44-124.37Q1779,391.42,1725.54,361.85ZM1690.75,675Q1652,715,1592,715q-39.13,0-70.45-17.83T1472,646.26q-18.27-33-18.27-76.54T1472,493.18q18.26-33,49.57-50.88T1592,424.47q60,0,98.72,40t38.7,105.24Q1729.45,635,1690.75,675Z"/><path class="cls-1" d="M1915.57,242.26q20,18.72,49.58,18.7,30.42,0,50-19.57t19.57-48.27q0-27-20-44.79t-49.57-17.83q-29.58,0-49.58,18.7t-20,46.53Q1895.56,223.57,1915.57,242.26Z"/><rect class="cls-1" x="1910.35" y="337.5" width="108.72" height="464.45"/></g></g></svg>